<svg xmlns="http://www.w3.org/2000/svg" width="753" height="279" fill="none"><rect width="231" height="17" x="482" y="232" fill="#9fc3fd" rx="8.5"/><path fill="#2a2a2a" d="M131.7 158.5c0 24.6-5.07 43.4-15.25 56.4s-25.05 19.54-44.67 19.54c-19.37 0-34.18-6.4-44.44-19.16s-15.5-31.1-15.74-54.93v-32.72c0-24.82 5.12-43.66 15.38-56.52C37.3 58.26 52.16 51.83 71.53 51.83s34.18 6.4 44.44 19.17c10.25 12.68 15.5 30.95 15.74 54.8v32.7zm-35.26-35.88c0-14.73-2.04-25.43-6.1-32.1-4-6.75-10.26-10.13-18.8-10.13-8.3 0-14.45 3.2-18.44 9.63-3.9 6.35-5.98 16.32-6.23 29.9v43.22c0 14.5 1.96 25.27 5.86 32.35 4 7 10.34 10.5 19.05 10.5 8.62 0 14.85-3.38 18.67-10.13s5.82-17.1 5.98-31v-42.24zM277.47 232H155.64v-24.17l57.5-61.28c7.9-8.63 13.7-16.15 17.45-22.58 3.82-6.43 5.73-12.54 5.73-18.3 0-7.9-2-14.1-5.98-18.57-4-4.55-9.7-6.83-17.1-6.83-7.98 0-14.28 2.76-18.92 8.3-4.56 5.45-6.84 12.65-6.84 21.6h-35.4c0-10.82 2.55-20.7 7.7-29.66 5.2-8.94 12.52-15.94 21.96-21 9.44-5.1 20.14-7.7 32.1-7.7 18.32 0 32.52 4.4 42.6 13.2 10.18 8.8 15.27 21.2 15.27 37.23 0 8.8-2.28 17.74-6.83 26.85s-12.37 19.74-23.44 31.86l-40.4 42.6h76.4V232z"/><path fill="#59c9ff" d="M204.2 172.34c.55 3.94 1.63 6.9 3.23 8.85 2.93 3.54 7.95 5.32 15.06 5.32 4.25 0 7.7-.47 10.36-1.4 5.04-1.8 7.56-5.14 7.56-10.03 0-2.86-1.25-5.07-3.75-6.63-2.5-1.52-6.43-2.87-11.78-4.04l-9.15-2.05c-8.98-2.03-15.2-4.24-18.63-6.62-5.82-4-8.73-10.22-8.73-18.7 0-7.73 2.8-14.15 8.43-19.27s13.88-7.7 24.78-7.7c9.1 0 16.87 2.44 23.27 7.28 6.45 4.8 9.83 11.8 10.14 20.98h-17.33c-.32-5.2-2.58-8.9-6.8-11.08-2.8-1.44-6.3-2.17-10.5-2.17-4.64 0-8.35.95-11.12 2.83s-4.16 4.5-4.16 7.85c0 3.08 1.35 5.4 4.1 6.9 1.75 1.03 5.5 2.22 11.24 3.6l14.88 3.56c6.53 1.56 11.45 3.65 14.77 6.27 5.14 4.07 7.72 9.95 7.72 17.65 0 7.9-3.03 14.45-9.08 19.7-6.02 5.18-14.53 7.78-25.55 7.78-11.26 0-20.1-2.56-26.55-7.68-6.45-5.15-9.67-12.22-9.67-21.2h17.23zm59.07-24.73v-11.88h8.9v-17.8h16.53v17.8h10.37v11.9H288.7v33.74c0 2.62.33 4.26 1 4.93.66.6 2.7.92 6.1.92h1.57l1.7-.1v12.47l-7.9.28c-7.9.27-13.28-1.1-16.17-4.1-1.88-1.92-2.8-4.87-2.8-8.85V147.6h-8.92zm71.72-.4c-3.88 0-6.9 1.22-9.04 3.65-2.1 2.42-3.43 5.7-3.98 9.84h25.96c-.28-4.42-1.62-7.76-4.05-10.03-2.4-2.3-5.36-3.46-8.9-3.46zm0-13.76c5.3 0 10.1 1 14.34 3s7.78 5.13 10.55 9.42c2.5 3.8 4.1 8.2 4.85 13.2.43 2.92.6 7.14.53 12.64h-43.7c.23 6.4 2.24 10.9 6.03 13.48 2.3 1.6 5.1 2.4 8.33 2.4 3.43 0 6.23-.97 8.38-2.93 1.18-1.05 2.2-2.52 3.1-4.4h17.06c-.43 3.8-2.4 7.64-5.92 11.55-5.47 6.2-13.12 9.32-22.97 9.32-8.12 0-15.3-2.62-21.5-7.85s-9.32-13.75-9.32-25.55c0-11.06 2.8-19.53 8.38-25.43 5.63-5.9 12.9-8.86 21.86-8.86zm85.6 33.63c0-4.92-1.14-9.27-3.4-13.06-2.23-3.78-5.87-5.68-10.9-5.68-6.06 0-10.22 2.88-12.48 8.62-1.17 3.05-1.76 6.9-1.76 11.6 0 7.42 1.97 12.64 5.92 15.64 2.34 1.76 5.1 2.64 8.32 2.64 4.64 0 8.18-1.8 10.6-5.4 2.46-3.6 3.7-8.38 3.7-14.36zm-9.5-33.34c7.46 0 13.77 2.76 18.93 8.26 5.2 5.5 7.8 13.6 7.8 24.25 0 11.25-2.55 19.83-7.63 25.73-5.04 5.9-11.54 8.84-19.5 8.84-5.1 0-9.3-1.27-12.67-3.8-1.83-1.4-3.63-3.46-5.4-6.16v33.28h-16.5v-89h16v9.43c1.78-2.77 3.7-4.96 5.73-6.56 3.7-2.84 8.12-4.27 13.24-4.27zm136.35-21.1v15.3H521.6V199h-18.16v-71.07H477.5v-15.3h69.95zm30.47 22.5h16.93l9.73 46 9.96-46h17.4L613.44 199h-17.18l-10.02-46.52L576.1 199h-17.34l-17.93-63.87h17.93l9.96 45.82 9.2-45.82zm91.93 52.1c4.88 0 8.63-1.73 11.25-5.2s3.93-8.42 3.93-14.83-1.3-11.33-3.93-14.76c-2.62-3.48-6.37-5.22-11.25-5.22s-8.65 1.74-11.3 5.22c-2.62 3.43-3.93 8.36-3.93 14.76s1.3 11.35 3.92 14.83c2.66 3.47 6.43 5.2 11.3 5.2zm32.7-20.03c0 9.38-2.7 17.4-8.1 24.08-5.38 6.64-13.56 9.96-24.54 9.96s-19.15-3.32-24.54-9.96c-5.4-6.68-8.08-14.7-8.08-24.08 0-9.22 2.7-17.2 8.08-23.96s13.58-10.14 24.55-10.14 19.17 3.38 24.56 10.14 8.1 14.74 8.1 23.96z" filter="url(#a)"/><defs><filter id="a" width="615.566" height="214.023" x="136.98" y="64.113" filterUnits="userSpaceOnUse" color-interpolation-filters="sRGB"><feFlood flood-opacity="0" result="A"/><feColorMatrix in="SourceAlpha" values="0 0 0 0 0 0 0 0 0 0 0 0 0 0 0 0 0 0 127 0"/><feOffset dy="4"/><feGaussianBlur stdDeviation="25"/><feColorMatrix values="0 0 0 0 1 0 0 0 0 1 0 0 0 0 1 0 0 0 0.25 0"/><feBlend in2="A"/><feBlend in="SourceGraphic"/></filter></defs></svg>