<?xml version="1.0" encoding="UTF-8"?>
<svg xmlns="http://www.w3.org/2000/svg" xmlns:xlink="http://www.w3.org/1999/xlink" width="240pt" height="240pt" viewBox="0 0 240 240" version="1.1">
<g id="surface535080">
<path style=" stroke:none;fill-rule:nonzero;fill:rgb(100%,100%,100%);fill-opacity:1;" d="M 24 56 C 21.113281 55.960938 18.429688 57.476562 16.976562 59.96875 C 15.523438 62.457031 15.523438 65.542969 16.976562 68.03125 C 18.429688 70.523438 21.113281 72.039062 24 72 L 216 72 C 218.886719 72.039062 221.570312 70.523438 223.023438 68.03125 C 224.476562 65.542969 224.476562 62.457031 223.023438 59.96875 C 221.570312 57.476562 218.886719 55.960938 216 56 Z M 24 112 C 21.113281 111.960938 18.429688 113.476562 16.976562 115.96875 C 15.523438 118.457031 15.523438 121.542969 16.976562 124.03125 C 18.429688 126.523438 21.113281 128.039062 24 128 L 216 128 C 218.886719 128.039062 221.570312 126.523438 223.023438 124.03125 C 224.476562 121.542969 224.476562 118.457031 223.023438 115.96875 C 221.570312 113.476562 218.886719 111.960938 216 112 Z M 24 168 C 21.113281 167.960938 18.429688 169.476562 16.976562 171.96875 C 15.523438 174.457031 15.523438 177.542969 16.976562 180.03125 C 18.429688 182.523438 21.113281 184.039062 24 184 L 216 184 C 218.886719 184.039062 221.570312 182.523438 223.023438 180.03125 C 224.476562 177.542969 224.476562 174.457031 223.023438 171.96875 C 221.570312 169.476562 218.886719 167.960938 216 168 Z M 24 168 "/>
</g>
</svg>
