<svg xmlns="http://www.w3.org/2000/svg" width="764" height="277" fill="none"><rect width="224" height="17" x="492" y="227" fill="#5684e2" rx="8.5"/><path fill="#2a2a2a" d="M131.7 158.5c0 24.6-5.07 43.4-15.25 56.4s-25.05 19.54-44.67 19.54c-19.37 0-34.18-6.4-44.44-19.16s-15.5-31.1-15.74-54.93v-32.72c0-24.82 5.12-43.66 15.38-56.52C37.3 58.26 52.16 51.83 71.53 51.83s34.18 6.4 44.44 19.17c10.25 12.68 15.5 30.95 15.74 54.8v32.7zm-35.26-35.88c0-14.73-2.04-25.43-6.1-32.1-4-6.75-10.26-10.13-18.8-10.13-8.3 0-14.45 3.2-18.44 9.63-3.9 6.35-5.98 16.32-6.23 29.9v43.22c0 14.5 1.96 25.27 5.86 32.35 4 7 10.34 10.5 19.05 10.5 8.62 0 14.85-3.38 18.67-10.13s5.82-17.1 5.98-31v-42.24zM241.34 232h-35.3V96l-42.1 13.07V80.4l73.6-26.4h3.8v178z"/><path fill="#59c9ff" d="M212.2 170.34c.55 3.94 1.63 6.9 3.23 8.85 2.93 3.54 7.95 5.32 15.06 5.32 4.25 0 7.7-.47 10.36-1.4 5.04-1.8 7.56-5.14 7.56-10.03a7.4 7.4 0 00-3.75-6.63c-2.5-1.52-6.43-2.87-11.78-4.04l-9.15-2.05c-8.98-2.03-15.2-4.24-18.63-6.62-5.82-4-8.73-10.22-8.73-18.7 0-7.73 2.8-14.15 8.43-19.27s13.88-7.7 24.78-7.7c9.1 0 16.87 2.44 23.27 7.28 6.45 4.8 9.83 11.8 10.14 20.98h-17.33c-.32-5.2-2.58-8.9-6.8-11.08-2.8-1.44-6.3-2.17-10.5-2.17-4.64 0-8.35.95-11.12 2.83s-4.16 4.5-4.16 7.85c0 3.08 1.35 5.4 4.1 6.9 1.75 1.03 5.5 2.22 11.24 3.6l14.88 3.56c6.53 1.56 11.45 3.65 14.77 6.27 5.14 4.07 7.72 9.95 7.72 17.65 0 7.9-3.03 14.45-9.08 19.7-6.02 5.18-14.53 7.78-25.55 7.78-11.26 0-20.1-2.56-26.55-7.68-6.45-5.15-9.67-12.22-9.67-21.2h17.23zm59.07-24.73v-11.88h8.9v-17.8h16.53v17.8h10.37v11.9H296.7v33.74c0 2.62.33 4.26 1 4.93.66.6 2.7.92 6.1.92h1.57l1.7-.1v12.47l-7.9.28c-7.9.27-13.28-1.1-16.17-4.1-1.88-1.92-2.8-4.87-2.8-8.85V145.6h-8.92zm71.72-.4c-3.88 0-6.9 1.22-9.04 3.65-2.1 2.42-3.43 5.7-3.98 9.84h25.96c-.28-4.42-1.62-7.76-4.05-10.03a12.36 12.36 0 00-8.9-3.46zm0-13.76c5.3 0 10.1 1 14.34 3s7.78 5.13 10.55 9.42c2.5 3.8 4.1 8.2 4.85 13.2.43 2.92.6 7.14.53 12.64h-43.7c.23 6.4 2.24 10.9 6.03 13.48 2.3 1.6 5.1 2.4 8.33 2.4 3.43 0 6.23-.97 8.38-2.93a13.72 13.72 0 003.1-4.4h17.06c-.43 3.8-2.4 7.64-5.92 11.55-5.47 6.2-13.12 9.32-22.97 9.32-8.12 0-15.3-2.62-21.5-7.85s-9.32-13.75-9.32-25.55c0-11.06 2.8-19.53 8.38-25.43 5.63-5.9 12.9-8.86 21.86-8.86zm85.6 33.63a25 25 0 00-3.4-13.06c-2.23-3.78-5.87-5.68-10.9-5.68-6.06 0-10.22 2.88-12.48 8.62-1.17 3.05-1.76 6.9-1.76 11.6 0 7.42 1.97 12.64 5.92 15.64a13.42 13.42 0 008.32 2.64c4.64 0 8.18-1.8 10.6-5.4 2.46-3.6 3.7-8.38 3.7-14.36zm-9.5-33.34c7.46 0 13.77 2.76 18.93 8.26 5.2 5.5 7.8 13.6 7.8 24.25 0 11.25-2.55 19.83-7.63 25.73-5.04 5.9-11.54 8.84-19.5 8.84-5.1 0-9.3-1.27-12.67-3.8a24.79 24.79 0 01-5.4-6.16v33.28h-16.5v-89h16v9.43a26.48 26.48 0 015.73-6.56c3.7-2.84 8.12-4.27 13.24-4.27zm111.8 52.4c7.15 0 12.8-2.65 17-7.9 4.2-5.3 6.32-12.8 6.32-22.5s-2.1-17.18-6.33-22.45c-4.2-5.32-9.85-7.97-17-7.97s-12.85 2.64-17.1 7.9-6.4 12.78-6.4 22.5 2.13 17.23 6.4 22.5 9.95 7.9 17.1 7.9zm41.37-30.4c0 15.5-4.36 27.37-13.07 35.6-6.52 6.73-15.96 10.1-28.3 10.1s-21.78-3.37-28.3-10.1c-8.75-8.23-13.13-20.1-13.13-35.6 0-15.83 4.38-27.7 13.13-35.64 6.52-6.73 15.96-10.1 28.3-10.1s21.78 3.37 28.3 10.1c8.7 7.92 13.07 19.8 13.07 35.62zm47.87-22.1c6.6 0 12 1.73 16.17 5.2 4.23 3.44 6.34 9.16 6.34 17.17v43h-17.1v-38.85c0-3.36-.45-5.94-1.35-7.73-1.65-3.28-4.78-4.92-9.4-4.92-5.65 0-9.54 2.4-11.65 7.2-1.1 2.54-1.64 5.78-1.64 9.73V197h-16.63v-63.75H601v9.32c2.14-3.28 4.17-5.65 6.08-7.1 3.44-2.57 7.8-3.86 13.07-3.86zm63.16 13.58c-3.87 0-6.87 1.22-9.02 3.64-2.1 2.43-3.44 5.7-4 9.85h25.97c-.27-4.43-1.62-7.77-4.04-10.03a12.31 12.31 0 00-8.9-3.46zm0-13.76c5.3 0 10.1 1 14.36 3s7.77 5.13 10.54 9.42c2.5 3.8 4.12 8.2 4.87 13.2.43 2.92.6 7.14.52 12.64h-43.72c.24 6.4 2.25 10.9 6.04 13.48 2.3 1.6 5.08 2.4 8.32 2.4 3.44 0 6.23-.98 8.38-2.93a13.88 13.88 0 003.1-4.4h17.05c-.43 3.8-2.4 7.64-5.9 11.55-5.48 6.2-13.14 9.3-22.98 9.3-8.14 0-15.3-2.6-21.52-7.84s-9.3-13.75-9.3-25.54c0-11.06 2.78-19.53 8.37-25.43 5.62-5.9 12.9-8.86 21.85-8.86z" filter="url(#a)"/><defs><filter id="a" width="618.631" height="214.141" x="144.98" y="61.996" color-interpolation-filters="sRGB" filterUnits="userSpaceOnUse"><feFlood flood-opacity="0" result="A"/><feColorMatrix in="SourceAlpha" values="0 0 0 0 0 0 0 0 0 0 0 0 0 0 0 0 0 0 127 0"/><feOffset dy="4"/><feGaussianBlur stdDeviation="25"/><feColorMatrix values="0 0 0 0 1 0 0 0 0 1 0 0 0 0 1 0 0 0 0.25 0"/><feBlend in2="A"/><feBlend in="SourceGraphic"/></filter></defs></svg>