<svg xmlns="http://www.w3.org/2000/svg" width="838" height="270" fill="none"><rect width="325" height="17" x="469" y="232" fill="#fff" rx="8.5"/><path fill="#2a2a2a" d="M131.71 158.51c0 24.58-5.08 43.38-15.26 56.4s-25.05 19.53-44.67 19.53c-19.37 0-34.18-6.39-44.44-19.16s-15.5-31.1-15.74-54.93v-32.72c0-24.82 5.12-43.66 15.38-56.52C37.3 58.25 52.16 51.82 71.53 51.82s34.18 6.4 44.44 19.17c10.25 12.7 15.5 30.96 15.74 54.8v32.71zm-35.27-35.89c0-14.73-2.04-25.43-6.1-32.1-4-6.75-10.26-10.13-18.8-10.13-8.3 0-14.45 3.21-18.44 9.64-3.9 6.35-5.98 16.32-6.23 29.9v43.22c0 14.49 1.96 25.27 5.86 32.35 4 7 10.34 10.5 19.05 10.5 8.62 0 14.85-3.38 18.67-10.13s5.82-17.1 5.98-31v-42.24zm95.09 4.89h18.8c8.95 0 15.58-2.24 19.9-6.72s6.47-10.41 6.47-17.82c0-7.16-2.16-12.73-6.47-16.72-4.24-4-10.1-5.98-17.58-5.98-6.76 0-12.4 1.87-16.97 5.61-4.56 3.66-6.84 8.47-6.84 14.4h-35.28c0-9.27 2.49-17.57 7.45-24.9 5.05-7.4 12.04-13.18 21-17.33 9.03-4.15 18.96-6.23 29.78-6.23 18.8 0 33.53 4.52 44.2 13.55 10.65 8.96 15.98 21.33 15.98 37.11 0 8.14-2.48 15.63-7.44 22.46S253.05 137.03 245 140.7c10 3.58 17.45 8.95 22.34 16.11 4.96 7.16 7.44 15.63 7.44 25.4 0 15.8-5.78 28.45-17.33 37.97-11.48 9.52-26.7 14.28-45.66 14.28-17.74 0-32.26-4.68-43.58-14.04-11.23-9.36-16.84-21.73-16.84-37.1h35.28c0 6.67 2.48 12.12 7.44 16.35 5.05 4.23 11.23 6.35 18.56 6.35 8.38 0 14.93-2.2 19.65-6.6 4.8-4.47 7.2-10.37 7.2-17.7 0-17.73-9.76-26.6-29.3-26.6h-18.67v-27.6z"/><g filter="url(#A)"><path fill="#59c9ff" d="M192.2 163.34c.55 3.94 1.63 6.9 3.23 8.85 2.93 3.55 7.95 5.33 15.06 5.33 4.26 0 7.71-.47 10.37-1.4 5.04-1.8 7.56-5.14 7.56-10.03a7.39 7.39 0 00-3.75-6.62c-2.5-1.52-6.43-2.87-11.78-4.04l-9.14-2.05c-8.98-2.03-15.2-4.24-18.63-6.62-5.82-3.99-8.73-10.22-8.73-18.7 0-7.73 2.81-14.15 8.44-19.27s13.88-7.68 24.78-7.68c9.1 0 16.86 2.43 23.26 7.27 6.45 4.8 9.83 11.8 10.14 20.98h-17.34c-.32-5.2-2.58-8.89-6.8-11.08-2.81-1.44-6.31-2.17-10.49-2.17-4.65 0-8.36.94-11.13 2.82s-4.16 4.49-4.16 7.85a7.43 7.43 0 004.1 6.91c1.76 1.02 5.5 2.2 11.25 3.58l14.88 3.57c6.53 1.56 11.45 3.65 14.77 6.27 5.15 4.06 7.73 9.94 7.73 17.64 0 7.89-3.03 14.45-9.08 19.69-6.02 5.2-14.53 7.79-25.55 7.79-11.25 0-20.1-2.56-26.54-7.68-6.45-5.15-9.67-12.22-9.67-21.2h17.23zm59.07-24.73v-11.89h8.9v-17.81h16.53v17.81h10.37v11.9H276.7v33.74c0 2.62.33 4.26 1 4.93.66.62 2.7.93 6.09.93h1.58l1.7-.11v12.48l-7.9.29c-7.9.27-13.28-1.1-16.17-4.1-1.88-1.92-2.81-4.87-2.81-8.85v-39.32h-8.9zm71.72-.4c-3.87 0-6.88 1.21-9.03 3.64-2.1 2.42-3.43 5.7-3.98 9.84h25.96c-.28-4.41-1.62-7.75-4.05-10.02a12.3 12.3 0 00-8.9-3.46zm0-13.77c5.31 0 10.1 1 14.35 3s7.78 5.13 10.55 9.42c2.5 3.8 4.12 8.19 4.86 13.19.43 2.93.6 7.15.53 12.65h-43.7c.23 6.41 2.24 10.9 6.03 13.48 2.3 1.6 5.08 2.4 8.32 2.4 3.43 0 6.23-.97 8.38-2.93a13.91 13.91 0 003.1-4.4h17.05c-.43 3.8-2.4 7.64-5.92 11.55-5.47 6.21-13.12 9.32-22.97 9.32-8.12 0-15.29-2.62-21.5-7.85s-9.32-13.75-9.32-25.55c0-11.05 2.8-19.53 8.38-25.43 5.63-5.9 12.9-8.85 21.86-8.85zm85.6 33.63c0-4.92-1.13-9.27-3.4-13.06-2.22-3.8-5.86-5.69-10.9-5.69-6.05 0-10.2 2.88-12.47 8.62-1.17 3.05-1.76 6.91-1.76 11.6 0 7.42 1.97 12.64 5.92 15.64a13.47 13.47 0 008.32 2.64c4.64 0 8.18-1.8 10.6-5.4 2.46-3.6 3.7-8.38 3.7-14.36zm-9.49-33.34c7.46 0 13.77 2.76 18.93 8.26 5.2 5.51 7.79 13.6 7.79 24.26 0 11.25-2.54 19.83-7.62 25.73-5.04 5.9-11.54 8.84-19.5 8.84-5.09 0-9.3-1.27-12.67-3.8a24.74 24.74 0 01-5.4-6.16v33.28h-16.51v-89h16v9.43a26.8 26.8 0 015.74-6.56c3.7-2.85 8.12-4.28 13.24-4.28zm136.35-21.09v15.3H509.6V190h-18.17v-71.07H465.5v-15.3h69.96zm44.47 20.86c3.95 0 7.52.68 10.72 2.05a18.76 18.76 0 017.97 6.27 16.67 16.67 0 013.23 7.38c.39 2.5.58 6.6.58 12.3V190h-17.05v-38.85c0-3.44-.58-6.2-1.76-8.32-1.52-2.97-4.41-4.45-8.67-4.45-4.41 0-7.77 1.48-10.08 4.45-2.26 2.93-3.4 7.13-3.4 12.6V190h-16.63v-86.07h16.64v30.52c2.42-3.7 5.21-6.29 8.38-7.73a23.68 23.68 0 0110.07-2.23zm72.83.12a4.03 4.03 0 01.77.06c.23 0 .72.02 1.46.06v17.1a45.33 45.33 0 00-2.81-.23c-.82-.04-1.49-.06-2-.06-6.71 0-11.22 2.19-13.53 6.56-1.29 2.46-1.93 6.25-1.93 11.37V190h-16.82v-63.87h15.94v11.14c2.57-4.26 4.82-7.17 6.73-8.73 3.13-2.62 7.2-3.93 12.2-3.93zm37.27 13.6c-3.87 0-6.88 1.2-9.02 3.62-2.11 2.43-3.44 5.7-3.99 9.85h25.96c-.28-4.42-1.62-7.76-4.04-10.02a12.3 12.3 0 00-8.91-3.46zm0-13.78c5.31 0 10.1 1 14.35 2.99s7.78 5.14 10.55 9.43c2.5 3.8 4.12 8.19 4.86 13.19.43 2.93.61 7.15.53 12.65h-43.7c.24 6.41 2.25 10.9 6.04 13.48 2.3 1.6 5.07 2.4 8.32 2.4 3.43 0 6.23-.97 8.38-2.93a13.91 13.91 0 003.1-4.4h17.05c-.43 3.8-2.4 7.64-5.92 11.55-5.47 6.21-13.12 9.32-22.97 9.32-8.12 0-15.29-2.62-21.5-7.85s-9.32-13.75-9.32-25.55c0-11.06 2.8-19.53 8.38-25.43 5.63-5.9 12.9-8.85 21.86-8.85zm66.8 13.77c-3.87 0-6.88 1.21-9.03 3.63-2.1 2.43-3.44 5.7-3.98 9.85h25.96c-.28-4.42-1.62-7.76-4.05-10.02a12.3 12.3 0 00-8.9-3.46zm0-13.77c5.3 0 10.1 1 14.35 2.99s7.77 5.14 10.55 9.43c2.5 3.8 4.12 8.19 4.86 13.19.43 2.93.6 7.15.53 12.65H743.4c.23 6.41 2.25 10.9 6.04 13.48 2.3 1.6 5.07 2.4 8.31 2.4 3.44 0 6.23-.97 8.38-2.93a13.91 13.91 0 003.11-4.4h17.05c-.43 3.8-2.4 7.64-5.92 11.55-5.47 6.21-13.12 9.32-22.97 9.32-8.12 0-15.3-2.62-21.5-7.85s-9.32-13.75-9.32-25.55c0-11.06 2.8-19.53 8.38-25.43 5.63-5.9 12.9-8.85 21.86-8.85z"/></g><defs><filter id="A" width="712.147" height="214.023" x="124.98" y="55.113" color-interpolation-filters="sRGB" filterUnits="userSpaceOnUse"><feFlood flood-opacity="0" result="A"/><feColorMatrix in="SourceAlpha" values="0 0 0 0 0 0 0 0 0 0 0 0 0 0 0 0 0 0 127 0"/><feOffset dy="4"/><feGaussianBlur stdDeviation="25"/><feColorMatrix values="0 0 0 0 1 0 0 0 0 1 0 0 0 0 1 0 0 0 0.25 0"/><feBlend in2="A"/><feBlend in="SourceGraphic"/></filter></defs></svg>