<svg xmlns="http://www.w3.org/2000/svg" width="307" height="139" fill="none"><path fill="#2B2B2B" d="M52.7 64.6c0 9.84-2.05 17.36-6.12 22.56-4.07 5.2-10.02 7.82-17.87 7.82-7.73 0-13.65-2.56-17.75-7.67-4.1-5.1-6.2-12.4-6.3-21.95v-13.1c0-9.92 2.05-17.45 6.15-22.6 4.13-5.14 10.07-7.7 17.8-7.7 7.76 0 13.7 2.54 17.8 7.66 4.1 5.08 6.2 12.4 6.3 21.93v13.1zM38.56 50.26c0-5.9-.8-10.17-2.44-12.84-1.6-2.7-4.1-4.04-7.52-4.04-3.3 0-5.76 1.28-7.36 3.85-1.56 2.55-2.4 6.54-2.5 11.98v17.3c0 5.8.8 10.1 2.35 12.93 1.6 2.8 4.12 4.2 7.6 4.2 3.45 0 5.94-1.35 7.47-4.05 1.53-2.7 2.33-6.84 2.4-12.4v-16.9zM76.6 52.2h7.53c3.58 0 6.23-.9 7.96-2.68 1.7-1.8 2.57-4.17 2.57-7.13 0-2.9-.86-5.1-2.6-6.7-1.68-1.6-4.03-2.4-7.02-2.4-2.7 0-4.97.75-6.8 2.24-1.8 1.47-2.72 3.4-2.72 5.76h-14.1c0-3.7.98-7.02 2.96-9.95 2-2.96 4.8-5.27 8.4-6.93 3.6-1.66 7.6-2.5 11.9-2.5 7.53 0 13.4 1.82 17.68 5.43 4.26 3.58 6.4 8.53 6.4 14.84 0 3.24-1 6.23-3 8.97-1.97 2.73-4.58 4.83-7.8 6.3 4 1.43 6.98 3.58 8.93 6.44 2 2.88 3 6.26 3 10.17 0 6.3-2.3 11.38-6.93 15.18-4.6 3.8-10.68 5.72-18.26 5.72-7.1 0-12.9-1.88-17.42-5.62-4.5-3.74-6.75-8.7-6.75-14.84h14.1c0 2.68 1 4.86 3 6.55 2 1.7 4.48 2.54 7.4 2.54 3.36 0 5.98-.9 7.87-2.65 1.92-1.8 2.88-4.15 2.88-7.08 0-7.1-3.9-10.64-11.72-10.64H76.6V52.2z"/><rect width="108" height="6" x="150" y="88" fill="#fff" rx="3"/><path fill="#59C9FF" d="M58.4 67.1c.18 1.33.54 2.3 1.08 2.96.97 1.2 2.65 1.78 5.02 1.78 1.42 0 2.57-.16 3.45-.47 1.68-.6 2.52-1.7 2.52-3.34 0-.95-.4-1.68-1.25-2.2-.83-.5-2.14-.96-3.92-1.35l-3.05-.7c-3-.66-5.07-1.4-6.2-2.2-1.95-1.32-2.92-3.4-2.92-6.22 0-2.58.94-4.72 2.8-6.43 1.9-1.7 4.64-2.56 8.27-2.56 3.04 0 5.62.8 7.76 2.42 2.15 1.6 3.27 3.92 3.38 7h-5.8c-.1-1.76-.84-3-2.25-3.7-.96-.5-2.1-.74-3.5-.74-1.57 0-2.8.3-3.73.94-.92.63-1.38 1.5-1.38 2.63 0 1.02.44 1.8 1.35 2.3.6.34 1.84.74 3.75 1.2l4.97 1.18c2.18.54 3.82 1.24 4.93 2.1 1.7 1.37 2.57 3.33 2.57 5.9 0 2.62-1 4.8-3.02 6.55-2 1.74-4.85 2.6-8.52 2.6-3.75 0-6.7-.85-8.85-2.56-2.15-1.73-3.22-4.08-3.22-7.08h5.74zm19.7-8.23V54.9h2.96v-5.93h5.5v5.94h3.46v3.98h-3.45v11.25c0 .87.1 1.42.33 1.64.22.2.9.3 2.03.3.17 0 .34 0 .53 0 .2 0 .38 0 .56-.02v4.16l-2.63.1c-2.65.1-4.45-.36-5.4-1.36-.64-.64-.95-1.63-.95-2.95V58.9H78.1zm23.9-.14c-1.3 0-2.3.4-3 1.22-.7.8-1.16 1.9-1.34 3.28h8.65c-.07-1.47-.52-2.6-1.32-3.34-.8-.8-1.8-1.18-2.97-1.18zm0-4.6c1.77 0 3.36.35 4.78 1 1.42.67 2.6 1.72 3.52 3.16.83 1.24 1.37 2.7 1.62 4.37.14.98.2 2.38.17 4.22H97.5c.08 2.12.75 3.62 2.02 4.5.76.5 1.7.8 2.77.8 1.14 0 2.1-.34 2.8-1 .4-.35.73-.84 1.03-1.46h5.68c-.13 1.26-.8 2.55-1.96 3.85-1.82 2.06-4.38 3.1-7.66 3.1-2.72 0-5.1-.88-7.18-2.6-2.07-1.77-3.1-4.6-3.1-8.54 0-3.68.93-6.5 2.8-8.48 1.87-1.97 4.3-2.96 7.28-2.96zm28.53 11.23c0-1.65-.38-3.1-1.13-4.36-.74-1.26-1.96-1.9-3.63-1.9-2.02 0-3.4.96-4.16 2.88-.37 1-.57 2.3-.57 3.86 0 2.48.66 4.22 1.97 5.22.77.58 1.7.88 2.77.88 1.55 0 2.72-.6 3.53-1.8.82-1.2 1.23-2.8 1.23-4.78zm-3.16-11.12c2.48 0 4.6.92 6.3 2.76 1.74 1.83 2.6 4.53 2.6 8.08 0 3.75-.84 6.6-2.54 8.58-1.67 1.96-3.84 2.95-6.5 2.95-1.7 0-3.1-.4-4.22-1.25-.6-.47-1.2-1.16-1.77-2.05v11.08h-5.5V54.7h5.32v3.16c.6-.93 1.24-1.66 1.9-2.2 1.25-.94 2.72-1.42 4.43-1.42zm45.45-7.03v5.1h-8.62V76h-6.05V52.3h-8.65v-5.1h23.32zm14.82 6.97c1.32 0 2.5.23 3.58.7 1.08.44 1.96 1.14 2.65 2.08.6.8.94 1.6 1.07 2.46.14.84.2 2.2.2 4.1V76h-5.68V63.05c0-1.15-.2-2.07-.6-2.77-.5-1-1.46-1.5-2.88-1.5-1.47 0-2.6.5-3.36 1.5-.75.97-1.13 2.37-1.13 4.2V76h-5.57V47.3h5.55v10.2c.8-1.23 1.73-2.1 2.78-2.57 1.07-.5 2.2-.74 3.36-.74zm24.28.04c.1 0 .2 0 .25.03.08 0 .24 0 .5.02v5.7c-.36-.03-.67-.06-.95-.07-.27-.02-.5-.02-.66-.02-2.24 0-3.75.73-4.5 2.2-.44.8-.66 2.07-.66 3.77V76h-5.6V54.7h5.3v3.72c.87-1.42 1.62-2.4 2.25-2.9 1.05-.88 2.4-1.32 4.07-1.32zm12.42 4.54c-1.3 0-2.3.4-3 1.22-.7.8-1.15 1.9-1.34 3.28h8.66c-.1-1.47-.54-2.6-1.35-3.34-.8-.78-1.77-1.17-2.95-1.17zm0-4.6c1.77 0 3.37.35 4.78 1 1.42.67 2.6 1.72 3.52 3.16.83 1.25 1.37 2.7 1.62 4.38.15.98.2 2.38.18 4.22h-14.57c.07 2.13.75 3.63 2 4.5.78.52 1.7.8 2.78.8 1.15 0 2.08-.33 2.8-1 .4-.34.73-.83 1.03-1.45h5.68c-.14 1.26-.8 2.55-1.97 3.85-1.84 2.07-4.4 3.1-7.67 3.1-2.7 0-5.1-.87-7.17-2.6-2.07-1.76-3.1-4.6-3.1-8.53 0-3.68.92-6.5 2.78-8.48 1.88-1.98 4.3-2.97 7.3-2.97zm22.26 4.6c-1.28 0-2.3.4-3 1.22-.7.8-1.15 1.9-1.33 3.28h8.65c-.1-1.47-.54-2.6-1.35-3.34-.8-.78-1.78-1.17-2.97-1.17zm0-4.6c1.78 0 3.37.35 4.8 1 1.4.67 2.58 1.72 3.5 3.16.84 1.25 1.38 2.7 1.63 4.38.14.98.2 2.38.17 4.22h-14.57c.08 2.13.75 3.63 2.02 4.5.76.52 1.7.8 2.77.8 1.14 0 2.08-.33 2.8-1 .38-.34.73-.83 1.03-1.45h5.68c-.14 1.26-.8 2.55-1.97 3.85-1.83 2.07-4.38 3.1-7.66 3.1-2.7 0-5.1-.87-7.17-2.6-2.07-1.76-3.1-4.6-3.1-8.53 0-3.68.93-6.5 2.8-8.48 1.86-1.98 4.3-2.97 7.27-2.97z" filter="url(#a)"/><defs><filter id="a" width="304.049" height="138.008" x="2.66" y=".371" filterUnits="userSpaceOnUse" color-interpolation-filters="sRGB"><feFlood flood-opacity="0" result="BackgroundImageFix"/><feColorMatrix in="SourceAlpha" values="0 0 0 0 0 0 0 0 0 0 0 0 0 0 0 0 0 0 127 0"/><feOffset dy="4"/><feGaussianBlur stdDeviation="25"/><feColorMatrix values="0 0 0 0 1 0 0 0 0 1 0 0 0 0 1 0 0 0 0.25 0"/><feBlend in2="BackgroundImageFix" result="effect1_dropShadow"/><feBlend in="SourceGraphic" in2="effect1_dropShadow" result="shape"/></filter></defs></svg>