<svg width="233" height="98" viewBox="0 0 233 98" fill="none" xmlns="http://www.w3.org/2000/svg">
<rect x="149.008" y="86.9998" width="75" height="6" rx="3" fill="#5684E2"/>
<path d="M52.6934 63.6052C52.6934 73.436 50.6589 80.9555 46.5898 86.1638C42.5208 91.3722 36.5638 93.9763 28.7188 93.9763C20.9714 93.9763 15.0469 91.421 10.9453 86.3103C6.84375 81.1996 4.74414 73.8754 4.64648 64.3376V51.2517C4.64648 41.3233 6.69727 33.7875 10.7988 28.6443C14.9329 23.5011 20.8737 20.9294 28.6211 20.9294C36.3685 20.9294 42.293 23.4848 46.3945 28.5955C50.4961 33.6736 52.5957 40.9815 52.6934 50.5193V63.6052ZM38.582 49.2498C38.582 43.3578 37.7682 39.0772 36.1406 36.408C34.5456 33.7061 32.0391 32.3552 28.6211 32.3552C25.3008 32.3552 22.8431 33.641 21.248 36.2126C19.6855 38.7517 18.8555 42.7393 18.7578 48.1755V65.4607C18.7578 71.255 19.5391 75.5681 21.1016 78.4001C22.6966 81.1996 25.2357 82.5994 28.7188 82.5994C32.1693 82.5994 34.6595 81.2485 36.1895 78.5466C37.7194 75.8448 38.5169 71.7107 38.582 66.1443V49.2498ZM96.541 92.9998H82.4297V38.6052L65.584 43.8298V32.3552L95.0273 21.8083H96.541V92.9998Z" fill="#2B2B2B"/>
<g filter="url(#filter0_d)">
<path d="M55.4102 66.113C55.5924 67.4281 55.9505 68.4112 56.4844 69.0623C57.4609 70.2472 59.1341 70.8396 61.5039 70.8396C62.9232 70.8396 64.0755 70.6833 64.9609 70.3708C66.6406 69.7719 67.4805 68.6586 67.4805 67.031C67.4805 66.0805 67.0638 65.3448 66.2305 64.824C65.3971 64.3162 64.0885 63.8669 62.3047 63.4763L59.2578 62.7927C56.263 62.1156 54.1927 61.38 53.0469 60.5857C51.1068 59.2576 50.1367 57.1807 50.1367 54.3552C50.1367 51.7771 51.0742 49.6352 52.9492 47.9294C54.8242 46.2237 57.5781 45.3708 61.2109 45.3708C64.2448 45.3708 66.8294 46.1781 68.9648 47.7927C71.1133 49.3943 72.2396 51.725 72.3438 54.7849H66.5625C66.4583 53.0531 65.7031 51.8227 64.2969 51.0935C63.3594 50.6117 62.194 50.3708 60.8008 50.3708C59.2513 50.3708 58.0143 50.6833 57.0898 51.3083C56.1654 51.9333 55.7031 52.8057 55.7031 53.9255C55.7031 54.9542 56.1589 55.7224 57.0703 56.2302C57.6562 56.5688 58.9062 56.9659 60.8203 57.4216L65.7812 58.613C67.9557 59.1339 69.5964 59.8305 70.7031 60.7029C72.4219 62.057 73.2812 64.0167 73.2812 66.5818C73.2812 69.212 72.2721 71.3995 70.2539 73.1443C68.2487 74.8761 65.4102 75.7419 61.7383 75.7419C57.9883 75.7419 55.0391 74.8891 52.8906 73.1833C50.7422 71.4646 49.668 69.1078 49.668 66.113H55.4102ZM75.0977 57.8708V53.906H78.0664V47.9685H83.5742V53.906H87.0312V57.8708H83.5742V69.1208C83.5742 69.9932 83.6849 70.5401 83.9062 70.7615C84.1276 70.9698 84.8047 71.074 85.9375 71.074C86.1068 71.074 86.2826 71.074 86.4648 71.074C86.6602 71.061 86.849 71.0479 87.0312 71.0349V75.1951L84.3945 75.2927C81.7643 75.3839 79.9674 74.9281 79.0039 73.9255C78.3789 73.2875 78.0664 72.3044 78.0664 70.9763V57.8708H75.0977ZM99.0039 57.7341C97.7148 57.7341 96.7122 58.1378 95.9961 58.9451C95.293 59.7524 94.8503 60.8461 94.668 62.2263H103.32C103.229 60.755 102.78 59.6417 101.973 58.8865C101.178 58.1182 100.189 57.7341 99.0039 57.7341ZM99.0039 53.1443C100.775 53.1443 102.37 53.4763 103.789 54.1404C105.208 54.8044 106.38 55.8526 107.305 57.2849C108.138 58.5479 108.678 60.0128 108.926 61.6794C109.069 62.656 109.128 64.0623 109.102 65.8982H94.5312C94.6094 68.0336 95.2799 69.531 96.543 70.3904C97.3112 70.9242 98.2357 71.1912 99.3164 71.1912C100.462 71.1912 101.393 70.8656 102.109 70.2146C102.5 69.863 102.845 69.3748 103.145 68.7498H108.828C108.685 70.0128 108.027 71.2953 106.855 72.5974C105.033 74.6677 102.48 75.7029 99.1992 75.7029C96.4909 75.7029 94.1016 74.8305 92.0312 73.0857C89.9609 71.3409 88.9258 68.5024 88.9258 64.5701C88.9258 60.8852 89.8568 58.0597 91.7188 56.0935C93.5938 54.1274 96.0221 53.1443 99.0039 53.1443ZM127.539 64.3552C127.539 62.7146 127.161 61.2628 126.406 59.9998C125.664 58.7367 124.453 58.1052 122.773 58.1052C120.755 58.1052 119.368 59.0623 118.613 60.9763C118.223 61.9919 118.027 63.281 118.027 64.8435C118.027 67.3175 118.685 69.0557 120 70.0583C120.781 70.6443 121.706 70.9373 122.773 70.9373C124.323 70.9373 125.501 70.3383 126.309 69.1404C127.129 67.9425 127.539 66.3474 127.539 64.3552ZM124.375 53.2419C126.862 53.2419 128.965 54.1599 130.684 55.9958C132.415 57.8318 133.281 60.5271 133.281 64.0818C133.281 67.8318 132.435 70.6899 130.742 72.656C129.062 74.6222 126.895 75.6052 124.238 75.6052C122.546 75.6052 121.139 75.182 120.02 74.3357C119.408 73.8669 118.809 73.1833 118.223 72.2849V83.3787H112.715V53.7107H118.047V56.8552C118.646 55.9307 119.284 55.2016 119.961 54.6677C121.198 53.7172 122.669 53.2419 124.375 53.2419ZM161.641 70.7029C164.023 70.7029 165.911 69.824 167.305 68.0662C168.711 66.3083 169.414 63.8083 169.414 60.5662C169.414 57.337 168.711 54.8435 167.305 53.0857C165.911 51.3149 164.023 50.4294 161.641 50.4294C159.258 50.4294 157.357 51.3083 155.938 53.0662C154.518 54.824 153.809 57.324 153.809 60.5662C153.809 63.8083 154.518 66.3083 155.938 68.0662C157.357 69.824 159.258 70.7029 161.641 70.7029ZM175.43 60.5662C175.43 65.7354 173.978 69.6938 171.074 72.4412C168.9 74.6807 165.755 75.8005 161.641 75.8005C157.526 75.8005 154.382 74.6807 152.207 72.4412C149.29 69.6938 147.832 65.7354 147.832 60.5662C147.832 55.2927 149.29 51.3344 152.207 48.6912C154.382 46.4516 157.526 45.3318 161.641 45.3318C165.755 45.3318 168.9 46.4516 171.074 48.6912C173.978 51.3344 175.43 55.2927 175.43 60.5662ZM191.387 53.2029C193.587 53.2029 195.384 53.7823 196.777 54.9412C198.184 56.087 198.887 57.9945 198.887 60.6638V74.9998H193.184V62.0505C193.184 60.9307 193.034 60.0714 192.734 59.4724C192.188 58.3787 191.146 57.8318 189.609 57.8318C187.721 57.8318 186.426 58.6326 185.723 60.2341C185.358 61.0805 185.176 62.1612 185.176 63.4763V74.9998H179.629V53.7498H185V56.8552C185.716 55.7615 186.393 54.9737 187.031 54.4919C188.177 53.6326 189.629 53.2029 191.387 53.2029ZM212.441 57.7341C211.152 57.7341 210.15 58.1378 209.434 58.9451C208.73 59.7524 208.288 60.8461 208.105 62.2263H216.758C216.667 60.755 216.217 59.6417 215.41 58.8865C214.616 58.1182 213.626 57.7341 212.441 57.7341ZM212.441 53.1443C214.212 53.1443 215.807 53.4763 217.227 54.1404C218.646 54.8044 219.818 55.8526 220.742 57.2849C221.576 58.5479 222.116 60.0128 222.363 61.6794C222.507 62.656 222.565 64.0623 222.539 65.8982H207.969C208.047 68.0336 208.717 69.531 209.98 70.3904C210.749 70.9242 211.673 71.1912 212.754 71.1912C213.9 71.1912 214.831 70.8656 215.547 70.2146C215.938 69.863 216.283 69.3748 216.582 68.7498H222.266C222.122 70.0128 221.465 71.2953 220.293 72.5974C218.47 74.6677 215.918 75.7029 212.637 75.7029C209.928 75.7029 207.539 74.8305 205.469 73.0857C203.398 71.3409 202.363 68.5024 202.363 64.5701C202.363 60.8852 203.294 58.0597 205.156 56.0935C207.031 54.1274 209.46 53.1443 212.441 53.1443Z" fill="#59C9FF"/>
</g>
<defs>
<filter id="filter0_d" x="39.668" y="39.3318" width="192.877" height="58.0469" filterUnits="userSpaceOnUse" color-interpolation-filters="sRGB">
<feFlood flood-opacity="0" result="BackgroundImageFix"/>
<feColorMatrix in="SourceAlpha" type="matrix" values="0 0 0 0 0 0 0 0 0 0 0 0 0 0 0 0 0 0 127 0"/>
<feOffset dy="4"/>
<feGaussianBlur stdDeviation="5"/>
<feColorMatrix type="matrix" values="0 0 0 0 1 0 0 0 0 1 0 0 0 0 1 0 0 0 0.2 0"/>
<feBlend mode="normal" in2="BackgroundImageFix" result="effect1_dropShadow"/>
<feBlend mode="normal" in="SourceGraphic" in2="effect1_dropShadow" result="shape"/>
</filter>
</defs>
</svg>
