<svg width="232" height="98" viewBox="0 0 232 98" fill="none" xmlns="http://www.w3.org/2000/svg">
<rect x="146" y="87" width="77" height="6" rx="3" fill="#A0C3FD"/>
<path d="M52.6855 63.6055C52.6855 73.4362 50.651 80.9557 46.582 86.1641C42.513 91.3724 36.556 93.9766 28.7109 93.9766C20.9635 93.9766 15.0391 91.4212 10.9375 86.3105C6.83594 81.1999 4.73633 73.8757 4.63867 64.3379V51.252C4.63867 41.3236 6.68945 33.7878 10.791 28.6445C14.9251 23.5013 20.8659 20.9297 28.6133 20.9297C36.3607 20.9297 42.2852 23.485 46.3867 28.5957C50.4883 33.6738 52.5879 40.9818 52.6855 50.5195V63.6055ZM38.5742 49.25C38.5742 43.3581 37.7604 39.0775 36.1328 36.4082C34.5378 33.7064 32.0312 32.3555 28.6133 32.3555C25.293 32.3555 22.8353 33.6413 21.2402 36.2129C19.6777 38.752 18.8477 42.7396 18.75 48.1758V65.4609C18.75 71.2552 19.5312 75.5684 21.0938 78.4004C22.6888 81.1999 25.2279 82.5996 28.7109 82.5996C32.1615 82.5996 34.6517 81.2487 36.1816 78.5469C37.7116 75.8451 38.5091 71.7109 38.5742 66.1445V49.25ZM110.986 93H62.2559V83.332L85.2539 58.8203C88.4115 55.3698 90.7389 52.3587 92.2363 49.7871C93.7663 47.2155 94.5312 44.7741 94.5312 42.4629C94.5312 39.3053 93.7337 36.8314 92.1387 35.041C90.5436 33.2181 88.265 32.3066 85.3027 32.3066C82.1126 32.3066 79.5898 33.4134 77.7344 35.627C75.9115 37.8079 75 40.6888 75 44.2695H60.8398C60.8398 39.9401 61.8652 35.985 63.916 32.4043C65.9993 28.8236 68.929 26.0241 72.7051 24.0059C76.4811 21.9551 80.7617 20.9297 85.5469 20.9297C92.8711 20.9297 98.5514 22.6875 102.588 26.2031C106.657 29.7188 108.691 34.6829 108.691 41.0957C108.691 44.6113 107.78 48.1921 105.957 51.8379C104.134 55.4837 101.009 59.7318 96.582 64.582L80.4199 81.623H110.986V93Z" fill="#2B2B2B"/>
<g filter="url(#filter0_d)">
<path d="M55.4023 66.1133C55.5846 67.4284 55.9427 68.4115 56.4766 69.0625C57.4531 70.2474 59.1263 70.8398 61.4961 70.8398C62.9154 70.8398 64.0677 70.6836 64.9531 70.3711C66.6328 69.7721 67.4727 68.6589 67.4727 67.0312C67.4727 66.0807 67.056 65.3451 66.2227 64.8242C65.3893 64.3164 64.0807 63.8672 62.2969 63.4766L59.25 62.793C56.2552 62.1159 54.1849 61.3802 53.0391 60.5859C51.099 59.2578 50.1289 57.181 50.1289 54.3555C50.1289 51.7773 51.0664 49.6354 52.9414 47.9297C54.8164 46.224 57.5703 45.3711 61.2031 45.3711C64.237 45.3711 66.8216 46.1784 68.957 47.793C71.1055 49.3945 72.2318 51.7253 72.3359 54.7852H66.5547C66.4505 53.0534 65.6953 51.8229 64.2891 51.0938C63.3516 50.612 62.1862 50.3711 60.793 50.3711C59.2435 50.3711 58.0065 50.6836 57.082 51.3086C56.1576 51.9336 55.6953 52.806 55.6953 53.9258C55.6953 54.9544 56.151 55.7227 57.0625 56.2305C57.6484 56.569 58.8984 56.9661 60.8125 57.4219L65.7734 58.6133C67.9479 59.1341 69.5885 59.8307 70.6953 60.7031C72.4141 62.0573 73.2734 64.0169 73.2734 66.582C73.2734 69.2122 72.2643 71.3997 70.2461 73.1445C68.2409 74.8763 65.4023 75.7422 61.7305 75.7422C57.9805 75.7422 55.0312 74.8893 52.8828 73.1836C50.7344 71.4648 49.6602 69.1081 49.6602 66.1133H55.4023ZM75.0898 57.8711V53.9062H78.0586V47.9688H83.5664V53.9062H87.0234V57.8711H83.5664V69.1211C83.5664 69.9935 83.6771 70.5404 83.8984 70.7617C84.1198 70.9701 84.7969 71.0742 85.9297 71.0742C86.099 71.0742 86.2747 71.0742 86.457 71.0742C86.6523 71.0612 86.8411 71.0482 87.0234 71.0352V75.1953L84.3867 75.293C81.7565 75.3841 79.9596 74.9284 78.9961 73.9258C78.3711 73.2878 78.0586 72.3047 78.0586 70.9766V57.8711H75.0898ZM98.9961 57.7344C97.707 57.7344 96.7044 58.138 95.9883 58.9453C95.2852 59.7526 94.8424 60.8464 94.6602 62.2266H103.312C103.221 60.7552 102.772 59.6419 101.965 58.8867C101.171 58.1185 100.181 57.7344 98.9961 57.7344ZM98.9961 53.1445C100.767 53.1445 102.362 53.4766 103.781 54.1406C105.201 54.8047 106.372 55.8529 107.297 57.2852C108.13 58.5482 108.671 60.013 108.918 61.6797C109.061 62.6562 109.12 64.0625 109.094 65.8984H94.5234C94.6016 68.0339 95.2721 69.5312 96.5352 70.3906C97.3034 70.9245 98.2279 71.1914 99.3086 71.1914C100.454 71.1914 101.385 70.8659 102.102 70.2148C102.492 69.8633 102.837 69.375 103.137 68.75H108.82C108.677 70.013 108.02 71.2956 106.848 72.5977C105.025 74.668 102.473 75.7031 99.1914 75.7031C96.4831 75.7031 94.0938 74.8307 92.0234 73.0859C89.9531 71.3411 88.918 68.5026 88.918 64.5703C88.918 60.8854 89.849 58.0599 91.7109 56.0938C93.5859 54.1276 96.0143 53.1445 98.9961 53.1445ZM127.531 64.3555C127.531 62.7148 127.154 61.263 126.398 60C125.656 58.737 124.445 58.1055 122.766 58.1055C120.747 58.1055 119.361 59.0625 118.605 60.9766C118.215 61.9922 118.02 63.2812 118.02 64.8438C118.02 67.3177 118.677 69.056 119.992 70.0586C120.773 70.6445 121.698 70.9375 122.766 70.9375C124.315 70.9375 125.493 70.3385 126.301 69.1406C127.121 67.9427 127.531 66.3477 127.531 64.3555ZM124.367 53.2422C126.854 53.2422 128.957 54.1602 130.676 55.9961C132.408 57.832 133.273 60.5273 133.273 64.082C133.273 67.832 132.427 70.6901 130.734 72.6562C129.055 74.6224 126.887 75.6055 124.23 75.6055C122.538 75.6055 121.132 75.1823 120.012 74.3359C119.4 73.8672 118.801 73.1836 118.215 72.2852V83.3789H112.707V53.7109H118.039V56.8555C118.638 55.931 119.276 55.2018 119.953 54.668C121.19 53.7174 122.661 53.2422 124.367 53.2422ZM169.816 46.2109V51.3086H161.203V75H155.148V51.3086H146.496V46.2109H169.816ZM179.973 53.7109H185.617L188.859 69.043L192.18 53.7109H197.98L191.809 75H186.086L182.746 59.4922L179.367 75H173.586L167.609 53.7109H173.586L176.906 68.9844L179.973 53.7109ZM210.617 71.0742C212.245 71.0742 213.495 70.4948 214.367 69.3359C215.24 68.1771 215.676 66.5299 215.676 64.3945C215.676 62.2591 215.24 60.6185 214.367 59.4727C213.495 58.3138 212.245 57.7344 210.617 57.7344C208.99 57.7344 207.733 58.3138 206.848 59.4727C205.975 60.6185 205.539 62.2591 205.539 64.3945C205.539 66.5299 205.975 68.1771 206.848 69.3359C207.733 70.4948 208.99 71.0742 210.617 71.0742ZM221.516 64.3945C221.516 67.5195 220.617 70.1953 218.82 72.4219C217.023 74.6354 214.296 75.7422 210.637 75.7422C206.978 75.7422 204.25 74.6354 202.453 72.4219C200.656 70.1953 199.758 67.5195 199.758 64.3945C199.758 61.3216 200.656 58.6589 202.453 56.4062C204.25 54.1536 206.978 53.0273 210.637 53.0273C214.296 53.0273 217.023 54.1536 218.82 56.4062C220.617 58.6589 221.516 61.3216 221.516 64.3945Z" fill="#59C9FF"/>
</g>
<defs>
<filter id="filter0_d" x="39.6602" y="39.3711" width="191.855" height="58.0078" filterUnits="userSpaceOnUse" color-interpolation-filters="sRGB">
<feFlood flood-opacity="0" result="BackgroundImageFix"/>
<feColorMatrix in="SourceAlpha" type="matrix" values="0 0 0 0 0 0 0 0 0 0 0 0 0 0 0 0 0 0 127 0"/>
<feOffset dy="4"/>
<feGaussianBlur stdDeviation="5"/>
<feColorMatrix type="matrix" values="0 0 0 0 1 0 0 0 0 1 0 0 0 0 1 0 0 0 0.2 0"/>
<feBlend mode="normal" in2="BackgroundImageFix" result="effect1_dropShadow"/>
<feBlend mode="normal" in="SourceGraphic" in2="effect1_dropShadow" result="shape"/>
</filter>
</defs>
</svg>
