<svg xmlns="http://www.w3.org/2000/svg" width="274" height="139" fill="none"><rect width="75" height="6" x="150.008" y="88" fill="#5684E2" rx="3"/><path fill="#2B2B2B" d="M53.7 64.6c0 9.84-2.04 17.36-6.1 22.56-4.08 5.2-10.04 7.82-17.88 7.82-7.75 0-13.67-2.56-17.77-7.67-4.1-5.1-6.2-12.4-6.3-21.95v-13.1c0-9.92 2.05-17.45 6.15-22.6 4.13-5.14 10.07-7.7 17.82-7.7S43.3 24.47 47.4 29.6c4.1 5.07 6.2 12.38 6.3 21.92v13.1zM39.57 50.26c0-5.9-.8-10.17-2.44-12.84-1.6-2.7-4.1-4.04-7.52-4.04-3.3 0-5.77 1.28-7.36 3.85-1.56 2.55-2.4 6.54-2.5 11.98v17.3c0 5.8.8 10.1 2.35 12.93 1.6 2.8 4.13 4.2 7.6 4.2 3.46 0 5.95-1.35 7.48-4.05 1.52-2.7 2.32-6.84 2.38-12.4v-16.9zM97.54 94h-14.1V39.6l-16.86 5.23V33.36L96.03 22.8h1.5V94z"/><path fill="#59C9FF" d="M56.4 67.1c.2 1.33.55 2.3 1.08 2.96.98 1.2 2.65 1.78 5.02 1.78 1.42 0 2.58-.16 3.46-.47 1.68-.6 2.52-1.7 2.52-3.34 0-.95-.42-1.7-1.25-2.2-.83-.5-2.14-.96-3.93-1.35l-3.04-.7c-3-.66-5.07-1.4-6.2-2.2-1.95-1.32-2.92-3.4-2.92-6.22 0-2.58.93-4.72 2.8-6.43 1.88-1.7 4.64-2.56 8.27-2.56 3.05 0 5.64.8 7.77 2.42 2.15 1.6 3.28 3.92 3.38 6.97h-5.78c-.1-1.73-.86-2.96-2.26-3.7-.93-.47-2.1-.7-3.5-.7-1.54 0-2.8.3-3.7.93-.92.63-1.4 1.5-1.4 2.63 0 1.02.47 1.8 1.38 2.3.6.34 1.84.74 3.75 1.2l4.96 1.18c2.17.54 3.8 1.24 4.9 2.1 1.73 1.37 2.6 3.33 2.6 5.9 0 2.62-1 4.8-3.04 6.55-2 1.74-4.84 2.6-8.5 2.6-3.76 0-6.7-.85-8.86-2.56-2.16-1.73-3.23-4.08-3.23-7.08h5.74zm19.7-8.23V54.9h2.97v-5.93h5.5v5.94h3.46v3.98h-3.46v11.25c0 .87.1 1.42.34 1.64.24.2.9.3 2.05.3.17 0 .34 0 .52 0 .2 0 .4 0 .57-.03v4.17l-2.64.1c-2.64.1-4.43-.36-5.4-1.36-.62-.64-.93-1.63-.93-2.95V58.9H76.1zm23.9-.14c-1.3 0-2.3.4-3 1.22-.7.8-1.15 1.9-1.33 3.28h8.65c-.1-1.47-.54-2.6-1.35-3.34-.8-.8-1.78-1.18-2.97-1.18zm0-4.6c1.78 0 3.37.35 4.8 1 1.4.67 2.58 1.72 3.5 3.15.84 1.27 1.38 2.73 1.63 4.4.14.98.2 2.38.17 4.22H95.53c.08 2.13.75 3.63 2 4.5.78.52 1.7.8 2.8.8 1.13 0 2.06-.33 2.78-1 .4-.34.76-.83 1.06-1.45h5.68c-.14 1.26-.8 2.55-1.97 3.85-1.83 2.07-4.38 3.1-7.66 3.1-2.7 0-5.1-.87-7.16-2.6-2.07-1.76-3.1-4.6-3.1-8.53 0-3.68.93-6.5 2.8-8.48 1.86-1.98 4.3-2.97 7.27-2.97zm28.54 11.23c0-1.65-.38-3.1-1.13-4.36-.73-1.26-1.94-1.9-3.62-1.9-2.02 0-3.4.96-4.16 2.88-.38 1-.57 2.3-.57 3.86 0 2.48.66 4.22 1.97 5.22.78.58 1.7.88 2.77.88 1.54 0 2.72-.6 3.53-1.8.83-1.2 1.24-2.8 1.24-4.78zm-3.16-11.12c2.48 0 4.6.92 6.3 2.76 1.73 1.83 2.6 4.53 2.6 8.08 0 3.75-.84 6.6-2.54 8.58-1.68 1.96-3.85 2.95-6.5 2.95-1.7 0-3.1-.4-4.22-1.25-.6-.47-1.2-1.16-1.8-2.06v11.1h-5.5V54.7h5.33v3.16c.6-.93 1.23-1.66 1.9-2.2 1.25-.94 2.72-1.42 4.42-1.42zm37.26 17.46c2.38 0 4.27-.88 5.67-2.63 1.4-1.76 2.1-4.26 2.1-7.5 0-3.23-.7-5.73-2.1-7.48-1.4-1.8-3.27-2.68-5.65-2.68-2.38 0-4.28.88-5.7 2.64-1.42 1.75-2.13 4.25-2.13 7.5 0 3.24.72 5.74 2.14 7.5 1.42 1.75 3.32 2.63 5.7 2.63zm13.8-10.13c0 5.17-1.46 9.12-4.37 11.87-2.17 2.24-5.3 3.36-9.43 3.36-4.1 0-7.26-1.12-9.43-3.36-2.9-2.75-4.36-6.7-4.36-11.87 0-5.28 1.46-9.24 4.38-11.88 2.18-2.26 5.33-3.38 9.44-3.38 4.12 0 7.26 1.12 9.43 3.36 2.9 2.63 4.35 6.6 4.35 11.87zm15.95-7.37c2.2 0 3.97.58 5.37 1.74 1.4 1.15 2.1 3.05 2.1 5.72V76h-5.7V63.05c0-1.12-.15-1.98-.45-2.58-.54-1.1-1.58-1.64-3.12-1.64-1.88 0-3.17.8-3.88 2.4-.36.85-.54 1.93-.54 3.25V76h-5.55V54.75H186v3.1c.72-1.1 1.4-1.88 2.03-2.36 1.15-.88 2.6-1.3 4.36-1.3zm21.03 4.53c-1.3 0-2.3.4-3 1.22-.7.8-1.15 1.9-1.34 3.28h8.65c-.1-1.47-.54-2.6-1.35-3.34-.78-.8-1.77-1.18-2.96-1.18zm0-4.6c1.77 0 3.37.35 4.8 1 1.4.67 2.58 1.72 3.5 3.15.84 1.27 1.38 2.73 1.62 4.4.15.98.2 2.38.18 4.22h-14.57c.08 2.13.75 3.63 2 4.5.78.52 1.7.8 2.78.8 1.15 0 2.08-.33 2.8-1 .4-.34.73-.83 1.03-1.45h5.7c-.16 1.26-.8 2.55-2 3.85-1.8 2.07-4.36 3.1-7.64 3.1-2.7 0-5.1-.87-7.17-2.6-2.07-1.76-3.1-4.6-3.1-8.53 0-3.68.92-6.5 2.8-8.48 1.86-1.98 4.3-2.97 7.27-2.97z" filter="url(#a)"/><defs><filter id="a" width="272.877" height="138.047" x=".668" y=".332" filterUnits="userSpaceOnUse" color-interpolation-filters="sRGB"><feFlood flood-opacity="0" result="BackgroundImageFix"/><feColorMatrix in="SourceAlpha" values="0 0 0 0 0 0 0 0 0 0 0 0 0 0 0 0 0 0 127 0"/><feOffset dy="4"/><feGaussianBlur stdDeviation="25"/><feColorMatrix values="0 0 0 0 1 0 0 0 0 1 0 0 0 0 1 0 0 0 0.25 0"/><feBlend in2="BackgroundImageFix" result="effect1_dropShadow"/><feBlend in="SourceGraphic" in2="effect1_dropShadow" result="shape"/></filter></defs></svg>