<svg width="267" height="98" viewBox="0 0 267 98" fill="none" xmlns="http://www.w3.org/2000/svg">
<path d="M52.6855 63.6055C52.6855 73.4362 50.651 80.9557 46.582 86.1641C42.513 91.3724 36.556 93.9766 28.7109 93.9766C20.9635 93.9766 15.0391 91.4212 10.9375 86.3105C6.83594 81.1999 4.73633 73.8757 4.63867 64.3379V51.252C4.63867 41.3236 6.68945 33.7878 10.791 28.6445C14.9251 23.5013 20.8659 20.9297 28.6133 20.9297C36.3607 20.9297 42.2852 23.485 46.3867 28.5957C50.4883 33.6738 52.5879 40.9818 52.6855 50.5195V63.6055ZM38.5742 49.25C38.5742 43.3581 37.7604 39.0775 36.1328 36.4082C34.5378 33.7064 32.0312 32.3555 28.6133 32.3555C25.293 32.3555 22.8353 33.6413 21.2402 36.2129C19.6777 38.752 18.8477 42.7396 18.75 48.1758V65.4609C18.75 71.2552 19.5312 75.5684 21.0938 78.4004C22.6888 81.1999 25.2279 82.5996 28.7109 82.5996C32.1615 82.5996 34.6517 81.2487 36.1816 78.5469C37.7116 75.8451 38.5091 71.7109 38.5742 66.1445V49.25ZM76.6113 51.2031H84.1309C87.7116 51.2031 90.3646 50.3079 92.0898 48.5176C93.8151 46.7272 94.6777 44.3509 94.6777 41.3887C94.6777 38.5241 93.8151 36.2943 92.0898 34.6992C90.3971 33.1042 88.0534 32.3066 85.0586 32.3066C82.3568 32.3066 80.0944 33.0553 78.2715 34.5527C76.4486 36.0176 75.5371 37.9382 75.5371 40.3145H61.4258C61.4258 36.6035 62.4186 33.2832 64.4043 30.3535C66.4225 27.3913 69.222 25.0801 72.8027 23.4199C76.416 21.7598 80.3874 20.9297 84.7168 20.9297C92.2363 20.9297 98.1283 22.7363 102.393 26.3496C106.657 29.9303 108.789 34.8783 108.789 41.1934C108.789 44.4486 107.796 47.4434 105.811 50.1777C103.825 52.9121 101.221 55.0117 97.998 56.4766C102.002 57.9089 104.98 60.0573 106.934 62.9219C108.919 65.7865 109.912 69.1719 109.912 73.0781C109.912 79.3932 107.601 84.4551 102.979 88.2637C98.3887 92.0723 92.3014 93.9766 84.7168 93.9766C77.6204 93.9766 71.8099 92.1048 67.2852 88.3613C62.793 84.6178 60.5469 79.6699 60.5469 73.5176H74.6582C74.6582 76.1868 75.651 78.3678 77.6367 80.0605C79.6549 81.7533 82.1289 82.5996 85.0586 82.5996C88.4115 82.5996 91.0319 81.7207 92.9199 79.9629C94.8405 78.1725 95.8008 75.8125 95.8008 72.8828C95.8008 65.7865 91.8945 62.2383 84.082 62.2383H76.6113V51.2031Z" fill="#2B2B2B"/>
<rect x="150" y="87" width="108" height="6" rx="3" fill="white"/>
<g filter="url(#filter0_d)">
<path d="M58.4023 66.1133C58.5846 67.4284 58.9427 68.4115 59.4766 69.0625C60.4531 70.2474 62.1263 70.8398 64.4961 70.8398C65.9154 70.8398 67.0677 70.6836 67.9531 70.3711C69.6328 69.7721 70.4727 68.6589 70.4727 67.0312C70.4727 66.0807 70.056 65.3451 69.2227 64.8242C68.3893 64.3164 67.0807 63.8672 65.2969 63.4766L62.25 62.793C59.2552 62.1159 57.1849 61.3802 56.0391 60.5859C54.099 59.2578 53.1289 57.181 53.1289 54.3555C53.1289 51.7773 54.0664 49.6354 55.9414 47.9297C57.8164 46.224 60.5703 45.3711 64.2031 45.3711C67.237 45.3711 69.8216 46.1784 71.957 47.793C74.1055 49.3945 75.2318 51.7253 75.3359 54.7852H69.5547C69.4505 53.0534 68.6953 51.8229 67.2891 51.0938C66.3516 50.612 65.1862 50.3711 63.793 50.3711C62.2435 50.3711 61.0065 50.6836 60.082 51.3086C59.1576 51.9336 58.6953 52.806 58.6953 53.9258C58.6953 54.9544 59.151 55.7227 60.0625 56.2305C60.6484 56.569 61.8984 56.9661 63.8125 57.4219L68.7734 58.6133C70.9479 59.1341 72.5885 59.8307 73.6953 60.7031C75.4141 62.0573 76.2734 64.0169 76.2734 66.582C76.2734 69.2122 75.2643 71.3997 73.2461 73.1445C71.2409 74.8763 68.4023 75.7422 64.7305 75.7422C60.9805 75.7422 58.0312 74.8893 55.8828 73.1836C53.7344 71.4648 52.6602 69.1081 52.6602 66.1133H58.4023ZM78.0898 57.8711V53.9062H81.0586V47.9688H86.5664V53.9062H90.0234V57.8711H86.5664V69.1211C86.5664 69.9935 86.6771 70.5404 86.8984 70.7617C87.1198 70.9701 87.7969 71.0742 88.9297 71.0742C89.099 71.0742 89.2747 71.0742 89.457 71.0742C89.6523 71.0612 89.8411 71.0482 90.0234 71.0352V75.1953L87.3867 75.293C84.7565 75.3841 82.9596 74.9284 81.9961 73.9258C81.3711 73.2878 81.0586 72.3047 81.0586 70.9766V57.8711H78.0898ZM101.996 57.7344C100.707 57.7344 99.7044 58.138 98.9883 58.9453C98.2852 59.7526 97.8424 60.8464 97.6602 62.2266H106.312C106.221 60.7552 105.772 59.6419 104.965 58.8867C104.171 58.1185 103.181 57.7344 101.996 57.7344ZM101.996 53.1445C103.767 53.1445 105.362 53.4766 106.781 54.1406C108.201 54.8047 109.372 55.8529 110.297 57.2852C111.13 58.5482 111.671 60.013 111.918 61.6797C112.061 62.6562 112.12 64.0625 112.094 65.8984H97.5234C97.6016 68.0339 98.2721 69.5312 99.5352 70.3906C100.303 70.9245 101.228 71.1914 102.309 71.1914C103.454 71.1914 104.385 70.8659 105.102 70.2148C105.492 69.8633 105.837 69.375 106.137 68.75H111.82C111.677 70.013 111.02 71.2956 109.848 72.5977C108.025 74.668 105.473 75.7031 102.191 75.7031C99.4831 75.7031 97.0938 74.8307 95.0234 73.0859C92.9531 71.3411 91.918 68.5026 91.918 64.5703C91.918 60.8854 92.849 58.0599 94.7109 56.0938C96.5859 54.1276 99.0143 53.1445 101.996 53.1445ZM130.531 64.3555C130.531 62.7148 130.154 61.263 129.398 60C128.656 58.737 127.445 58.1055 125.766 58.1055C123.747 58.1055 122.361 59.0625 121.605 60.9766C121.215 61.9922 121.02 63.2812 121.02 64.8438C121.02 67.3177 121.677 69.056 122.992 70.0586C123.773 70.6445 124.698 70.9375 125.766 70.9375C127.315 70.9375 128.493 70.3385 129.301 69.1406C130.121 67.9427 130.531 66.3477 130.531 64.3555ZM127.367 53.2422C129.854 53.2422 131.957 54.1602 133.676 55.9961C135.408 57.832 136.273 60.5273 136.273 64.082C136.273 67.832 135.427 70.6901 133.734 72.6562C132.055 74.6224 129.887 75.6055 127.23 75.6055C125.538 75.6055 124.132 75.1823 123.012 74.3359C122.4 73.8672 121.801 73.1836 121.215 72.2852V83.3789H115.707V53.7109H121.039V56.8555C121.638 55.931 122.276 55.2018 122.953 54.668C124.19 53.7174 125.661 53.2422 127.367 53.2422ZM172.816 46.2109V51.3086H164.203V75H158.148V51.3086H149.496V46.2109H172.816ZM187.641 53.1641C188.956 53.1641 190.147 53.3919 191.215 53.8477C192.296 54.3034 193.181 55 193.871 55.9375C194.457 56.7318 194.815 57.5521 194.945 58.3984C195.076 59.2318 195.141 60.599 195.141 62.5V75H189.457V62.0508C189.457 60.9049 189.262 59.9805 188.871 59.2773C188.363 58.2878 187.4 57.793 185.98 57.793C184.509 57.793 183.389 58.2878 182.621 59.2773C181.866 60.2539 181.488 61.6536 181.488 63.4766V75H175.941V46.3086H181.488V56.4844C182.296 55.2474 183.227 54.388 184.281 53.9062C185.349 53.4115 186.469 53.1641 187.641 53.1641ZM211.918 53.2031C212.022 53.2031 212.107 53.2096 212.172 53.2227C212.25 53.2227 212.413 53.2292 212.66 53.2422V58.9453C212.309 58.9062 211.996 58.8802 211.723 58.8672C211.449 58.8542 211.228 58.8477 211.059 58.8477C208.819 58.8477 207.315 59.5768 206.547 61.0352C206.117 61.8555 205.902 63.1185 205.902 64.8242V75H200.297V53.7109H205.609V57.4219C206.469 56.0026 207.217 55.0326 207.855 54.5117C208.897 53.6393 210.251 53.2031 211.918 53.2031ZM224.34 57.7344C223.051 57.7344 222.048 58.138 221.332 58.9453C220.629 59.7526 220.186 60.8464 220.004 62.2266H228.656C228.565 60.7552 228.116 59.6419 227.309 58.8867C226.514 58.1185 225.525 57.7344 224.34 57.7344ZM224.34 53.1445C226.111 53.1445 227.706 53.4766 229.125 54.1406C230.544 54.8047 231.716 55.8529 232.641 57.2852C233.474 58.5482 234.014 60.013 234.262 61.6797C234.405 62.6562 234.464 64.0625 234.438 65.8984H219.867C219.945 68.0339 220.616 69.5312 221.879 70.3906C222.647 70.9245 223.572 71.1914 224.652 71.1914C225.798 71.1914 226.729 70.8659 227.445 70.2148C227.836 69.8633 228.181 69.375 228.48 68.75H234.164C234.021 70.013 233.363 71.2956 232.191 72.5977C230.368 74.668 227.816 75.7031 224.535 75.7031C221.827 75.7031 219.438 74.8307 217.367 73.0859C215.297 71.3411 214.262 68.5026 214.262 64.5703C214.262 60.8854 215.193 58.0599 217.055 56.0938C218.93 54.1276 221.358 53.1445 224.34 53.1445ZM246.605 57.7344C245.316 57.7344 244.314 58.138 243.598 58.9453C242.895 59.7526 242.452 60.8464 242.27 62.2266H250.922C250.831 60.7552 250.382 59.6419 249.574 58.8867C248.78 58.1185 247.79 57.7344 246.605 57.7344ZM246.605 53.1445C248.376 53.1445 249.971 53.4766 251.391 54.1406C252.81 54.8047 253.982 55.8529 254.906 57.2852C255.74 58.5482 256.28 60.013 256.527 61.6797C256.671 62.6562 256.729 64.0625 256.703 65.8984H242.133C242.211 68.0339 242.882 69.5312 244.145 70.3906C244.913 70.9245 245.837 71.1914 246.918 71.1914C248.064 71.1914 248.995 70.8659 249.711 70.2148C250.102 69.8633 250.447 69.375 250.746 68.75H256.43C256.286 70.013 255.629 71.2956 254.457 72.5977C252.634 74.668 250.082 75.7031 246.801 75.7031C244.092 75.7031 241.703 74.8307 239.633 73.0859C237.562 71.3411 236.527 68.5026 236.527 64.5703C236.527 60.8854 237.458 58.0599 239.32 56.0938C241.195 54.1276 243.624 53.1445 246.605 53.1445Z" fill="#59C9FF"/>
</g>
<defs>
<filter id="filter0_d" x="42.6602" y="39.3711" width="224.049" height="58.0078" filterUnits="userSpaceOnUse" color-interpolation-filters="sRGB">
<feFlood flood-opacity="0" result="BackgroundImageFix"/>
<feColorMatrix in="SourceAlpha" type="matrix" values="0 0 0 0 0 0 0 0 0 0 0 0 0 0 0 0 0 0 127 0"/>
<feOffset dy="4"/>
<feGaussianBlur stdDeviation="5"/>
<feColorMatrix type="matrix" values="0 0 0 0 1 0 0 0 0 1 0 0 0 0 1 0 0 0 0.2 0"/>
<feBlend mode="normal" in2="BackgroundImageFix" result="effect1_dropShadow"/>
<feBlend mode="normal" in="SourceGraphic" in2="effect1_dropShadow" result="shape"/>
</filter>
</defs>
</svg>
