<svg xmlns="http://www.w3.org/2000/svg" width="273" height="139" fill="none"><rect width="77" height="6" x="147" y="88" fill="#A0C3FD" rx="3"/><path fill="#2B2B2B" d="M53.69 64.6c0 9.84-2.04 17.36-6.1 22.56-4.08 5.21-10.03 7.82-17.88 7.82-7.75 0-13.67-2.56-17.77-7.67-4.1-5.11-6.2-12.43-6.3-21.97V52.25c0-9.93 2.05-17.46 6.15-22.6 4.14-5.15 10.08-7.72 17.82-7.72 7.75 0 13.68 2.55 17.78 7.67 4.1 5.07 6.2 12.38 6.3 21.92v13.09zM39.57 50.26c0-5.9-.81-10.17-2.44-12.84-1.6-2.7-4.1-4.05-7.52-4.05-3.32 0-5.77 1.28-7.37 3.85-1.56 2.54-2.4 6.53-2.49 11.97v17.28c0 5.8.78 10.1 2.34 12.94 1.6 2.8 4.14 4.2 7.62 4.2 3.45 0 5.94-1.35 7.47-4.05 1.53-2.7 2.33-6.84 2.4-12.4v-16.9zM112 94H63.26v-9.67l23-24.51c3.15-3.45 5.48-6.46 6.98-9.03 1.53-2.57 2.3-5.02 2.3-7.33 0-3.15-.8-5.63-2.4-7.42-1.6-1.82-3.88-2.73-6.84-2.73-3.19 0-5.71 1.1-7.57 3.32C76.91 38.8 76 41.69 76 45.27H61.84c0-4.33 1.03-8.29 3.08-11.87A21.85 21.85 0 0173.7 25a26.47 26.47 0 0112.84-3.07c7.32 0 13 1.76 17.04 5.27 4.07 3.52 6.1 8.48 6.1 14.9 0 3.51-.91 7.1-2.73 10.74-1.83 3.64-4.95 7.9-9.38 12.74L81.42 82.62h30.57V94z"/><g filter="url(#filter0_d)"><path fill="#59C9FF" d="M56.4 67.11c.18 1.32.54 2.3 1.08 2.95.97 1.19 2.65 1.78 5.02 1.78 1.42 0 2.57-.16 3.45-.47 1.68-.6 2.52-1.71 2.52-3.34 0-.95-.41-1.68-1.25-2.2a13.3 13.3 0 00-3.92-1.35l-3.05-.69c-3-.67-5.07-1.41-6.21-2.2-1.94-1.33-2.91-3.4-2.91-6.23 0-2.58.94-4.72 2.81-6.43 1.88-1.7 4.63-2.56 8.26-2.56 3.04 0 5.62.8 7.76 2.42 2.15 1.6 3.27 3.94 3.38 7h-5.79c-.1-1.74-.85-2.97-2.26-3.7a7.6 7.6 0 00-3.5-.72c-1.55 0-2.78.31-3.7.94a2.99 2.99 0 00-1.4 2.62c0 1.02.46 1.8 1.37 2.3.59.34 1.84.74 3.75 1.2l4.96 1.18c2.18.52 3.82 1.22 4.93 2.1 1.71 1.35 2.57 3.3 2.57 5.87 0 2.63-1 4.82-3.02 6.56-2 1.74-4.85 2.6-8.52 2.6-3.75 0-6.7-.85-8.85-2.56-2.15-1.72-3.22-4.07-3.22-7.07h5.74zm19.69-8.24v-3.96h2.97v-5.94h5.5v5.94h3.46v3.96h-3.45v11.25c0 .87.1 1.42.33 1.64.22.21.9.31 2.03.31.17 0 .34 0 .53 0 .2 0 .38-.02.56-.03v4.16l-2.63.1c-2.63.08-4.43-.37-5.4-1.37-.62-.64-.93-1.63-.93-2.95v-13.1h-2.97zm23.9-.14c-1.28 0-2.29.4-3 1.22-.7.8-1.15 1.9-1.33 3.28h8.65a4.78 4.78 0 00-1.34-3.34 4.1 4.1 0 00-2.97-1.16zm0-4.59c1.78 0 3.37.34 4.8 1a8.38 8.38 0 013.5 3.15 10.73 10.73 0 011.63 4.39c.14.98.2 2.38.17 4.22H95.52c.08 2.13.75 3.63 2.02 4.5.76.52 1.69.8 2.77.8a4 4 0 002.8-.99 4.7 4.7 0 001.03-1.46h5.68a7.06 7.06 0 01-1.97 3.85c-1.82 2.07-4.38 3.1-7.66 3.1-2.7 0-5.1-.87-7.17-2.61-2.07-1.75-3.1-4.59-3.1-8.52 0-3.68.93-6.51 2.8-8.48a9.61 9.61 0 017.28-2.95zm28.54 11.22c0-1.65-.38-3.1-1.13-4.36-.74-1.26-1.96-1.9-3.63-1.9-2.02 0-3.4.96-4.16 2.88a10.9 10.9 0 00-.59 3.86c0 2.48.66 4.22 1.97 5.22.78.58 1.7.88 2.78.88a4 4 0 003.53-1.8c.82-1.2 1.23-2.8 1.23-4.78zm-3.16-11.12c2.48 0 4.59.92 6.3 2.76 1.74 1.83 2.6 4.53 2.6 8.08 0 3.75-.84 6.61-2.54 8.58a8.16 8.16 0 01-6.5 2.95 6.8 6.8 0 01-4.22-1.27 8.19 8.19 0 01-1.8-2.05v11.09h-5.5V54.7h5.33v3.15a8.94 8.94 0 011.91-2.2 7.03 7.03 0 014.42-1.42zm45.45-7.03v5.1h-8.62V76h-6.05V52.3h-8.65v-5.09h23.32zm10.15 7.5h5.65l3.24 15.33 3.32-15.33h5.8L192.81 76h-5.72l-3.34-15.5-3.38 15.5h-5.78l-5.98-21.29h5.98l3.32 15.27 3.06-15.27zm30.65 17.36c1.63 0 2.88-.58 3.75-1.73.87-1.16 1.3-2.81 1.3-4.95 0-2.13-.43-3.77-1.3-4.92a4.41 4.41 0 00-3.75-1.74c-1.63 0-2.89.58-3.77 1.74-.88 1.15-1.31 2.79-1.31 4.92 0 2.14.44 3.79 1.3 4.95a4.46 4.46 0 003.78 1.73zm10.9-6.68c0 3.13-.9 5.8-2.7 8.03-1.8 2.22-4.52 3.32-8.18 3.32s-6.39-1.1-8.19-3.32c-1.8-2.22-2.7-4.9-2.7-8.03 0-3.07.9-5.73 2.7-7.98 1.8-2.26 4.53-3.38 8.19-3.38 3.66 0 6.38 1.12 8.18 3.38 1.8 2.25 2.7 4.91 2.7 7.98z"/></g><defs><filter id="filter0_d" width="271.855" height="138.008" x=".66" y=".371" color-interpolation-filters="sRGB" filterUnits="userSpaceOnUse"><feFlood flood-opacity="0" result="BackgroundImageFix"/><feColorMatrix in="SourceAlpha" values="0 0 0 0 0 0 0 0 0 0 0 0 0 0 0 0 0 0 127 0"/><feOffset dy="4"/><feGaussianBlur stdDeviation="25"/><feColorMatrix values="0 0 0 0 1 0 0 0 0 1 0 0 0 0 1 0 0 0 0.25 0"/><feBlend in2="BackgroundImageFix" result="effect1_dropShadow"/><feBlend in="SourceGraphic" in2="effect1_dropShadow" result="shape"/></filter></defs></svg>